<?xml version="1.0" encoding="utf-8"?>
<!-- Generator: Adobe Illustrator 19.0.0, SVG Export Plug-In . SVG Version: 6.00 Build 0)  -->
<svg version="1.0" xmlns="http://www.w3.org/2000/svg" xmlns:xlink="http://www.w3.org/1999/xlink" x="0px" y="0px"
	 viewBox="0 0 400 500" style="enable-background:new 0 0 400 500;" xml:space="preserve">
<style type="text/css">
	.st0{fill:#ECEBF5;}
	.st1{fill:url(#SVGID_1_);}
	.st2{fill:#FFFFFF;}
	.st3{fill:none;stroke:#6184DE;stroke-width:2;stroke-miterlimit:10;}
	.st4{opacity:0.6;fill:none;stroke:#6184DE;stroke-width:2;stroke-miterlimit:10;}
	.st5{fill:#8E8E8D;}
	.st6{fill:url(#SVGID_2_);}
	.st7{fill:url(#SVGID_3_);}
	.st8{fill:#9FA6D7;}
	.st9{fill:url(#SVGID_4_);}
	.st10{fill:#A2AEBA;}
	.st11{fill:url(#SVGID_5_);}
	.st12{fill:url(#SVGID_6_);}
	.st13{fill:url(#SVGID_7_);}
	.st14{fill:url(#SVGID_8_);}
	.st15{fill:url(#SVGID_9_);}
	.st16{fill:url(#SVGID_10_);}
	.st17{fill:url(#SVGID_11_);}
	.st18{fill:url(#SVGID_12_);}
	.st19{fill:url(#SVGID_13_);}
	.st20{fill:url(#SVGID_14_);}
	.st21{fill:url(#SVGID_15_);}
	.st22{fill:url(#SVGID_16_);}
	.st23{fill:url(#SVGID_17_);}
	.st24{fill:url(#SVGID_18_);}
	.st25{fill:url(#SVGID_19_);}
	.st26{fill:url(#SVGID_20_);}
	.st27{fill:url(#SVGID_21_);}
	.st28{fill:url(#SVGID_22_);}
	.st29{fill:url(#SVGID_23_);}
	.st30{fill:url(#SVGID_24_);}
	.st31{fill:url(#SVGID_25_);}
	.st32{fill:url(#SVGID_26_);}
	.st33{fill:url(#SVGID_27_);}
	.st34{fill:url(#SVGID_28_);}
	.st35{fill:url(#SVGID_29_);}
	.st36{fill:url(#SVGID_30_);}
	.st37{fill:url(#SVGID_31_);}
	.st38{fill:url(#SVGID_32_);}
	.st39{fill:url(#SVGID_33_);}
	.st40{fill:url(#SVGID_34_);}
	.st41{fill:url(#SVGID_35_);}
	.st42{fill:url(#SVGID_36_);}
	.st43{fill:url(#SVGID_37_);}
	.st44{fill:url(#SVGID_38_);}
	.st45{fill:url(#SVGID_39_);}
	.st46{fill:url(#SVGID_40_);}
	.st47{fill:url(#SVGID_41_);}
	.st48{fill:url(#SVGID_42_);}
	.st49{fill:url(#SVGID_43_);}
	.st50{fill:url(#SVGID_44_);}
	.st51{fill:url(#SVGID_45_);}
	.st52{opacity:0.5;fill:url(#SVGID_46_);}
</style>
<g id="graphics">
	<path class="st0" d="M276,334.4c-42.2-27.2-110.5-27.2-152.4,0c-20.9,13.6-31.4,31.4-31.3,49.2c0,17.9,10.7,35.7,31.8,49.4
		c42.2,27.2,110.5,27.2,152.4,0c21-13.6,31.4-31.4,31.3-49.3C307.7,365.9,297.1,348,276,334.4z"/>
	<linearGradient id="SVGID_1_" gradientUnits="userSpaceOnUse" x1="92.2224" y1="403.36" x2="307.7747" y2="403.36">
		<stop  offset="0" style="stop-color:#F28FD5"/>
		<stop  offset="1" style="stop-color:#1CB2F0"/>
	</linearGradient>
	<path class="st1" d="M307.8,365.4c0.1,17.8-10.3,35.7-31.3,49.3c-41.9,27.2-110.2,27.2-152.4,0c-21.2-13.6-31.8-31.5-31.8-49.4v6.1
		c0,17.9,10.6,35.9,31.8,49.5c42.2,27.2,110.5,27.2,152.4,0c21-13.6,31.4-31.4,31.3-49.3V365.4z"/>
	<path class="st2" d="M276,316.2c-42.2-27.2-110.5-27.2-152.4,0c-20.9,13.6-31.4,31.4-31.3,49.2c0,17.9,10.7,35.7,31.8,49.4
		c42.2,27.2,110.5,27.2,152.4,0c21-13.6,31.4-31.4,31.3-49.3C307.7,347.6,297.1,329.8,276,316.2z"/>
	<path class="st0" d="M221.2,348.5c-11.8-7.6-30.9-7.6-42.6,0c-5.8,3.8-8.8,8.8-8.8,13.7c0,5,3,10,8.9,13.8
		c11.8,7.6,30.9,7.6,42.6,0c5.9-3.8,8.8-8.8,8.8-13.8C230.1,357.3,227.1,352.3,221.2,348.5z"/>
	<path class="st3" d="M242.8,338.3c-23.8-13.7-62.3-13.7-85.9,0c-23.6,13.7-23.5,36,0.3,49.8c23.8,13.7,62.3,13.7,85.9,0
		C266.7,374.3,266.6,352.1,242.8,338.3z"/>
	<path class="st4" d="M259,329.8c-32.8-20.1-85.8-20.1-118.4,0c-32.6,20.1-32.4,52.7,0.4,72.8c32.8,20.1,85.8,20.1,118.4,0
		C292,382.5,291.8,349.9,259,329.8z"/>
	<g>
		<path class="st5" d="M149.7,268.4c-1.4-8.2,1.3-24.1,6.1-29.1c4.8-5,16.5-11.3,26.1-12.7c9.5-1.5,37.1-3.3,56.7,9.8
			c19.5,13.1,10.5,32.8,6.8,35.3c-3.7,2.5-4.2-21.6-45.3-22.9C158.9,247.6,149.7,268.4,149.7,268.4z"/>
		<linearGradient id="SVGID_2_" gradientUnits="userSpaceOnUse" x1="171.0017" y1="332.8161" x2="226.5788" y2="332.8161">
			<stop  offset="0" style="stop-color:#65B6FC"/>
			<stop  offset="1" style="stop-color:#8548F0"/>
		</linearGradient>
		<ellipse class="st6" cx="198.8" cy="332.8" rx="27.8" ry="26"/>
		<linearGradient id="SVGID_3_" gradientUnits="userSpaceOnUse" x1="140.0675" y1="308.238" x2="256.4467" y2="308.238">
			<stop  offset="0" style="stop-color:#FFFFFF"/>
			<stop  offset="1" style="stop-color:#D3DDE7"/>
		</linearGradient>
		<path class="st7" d="M254.4,297.5c-0.1-0.3-2.4-5-2.7-5c-7.4-12-30.3-25-61.5-22.2c-63.5,5.4-67,63.6-8.5,74.4
			C214.9,353,267.5,333.4,254.4,297.5z"/>
		<path class="st8" d="M232.9,280.3c-18.6-11.1-49.1-11.4-68.3-0.7c-19.1,10.7-19.6,28.4-1,39.5c18.6,11.1,49.1,11.4,68.3,0.7
			C251.1,309.1,251.5,291.4,232.9,280.3z"/>
		<linearGradient id="SVGID_4_" gradientUnits="userSpaceOnUse" x1="140.0845" y1="285.1007" x2="256.766" y2="285.1007">
			<stop  offset="0" style="stop-color:#FFFFFF"/>
			<stop  offset="1" style="stop-color:#D3DDE7"/>
		</linearGradient>
		<path class="st9" d="M251.5,269.1c-6.7-10.2-22.4-17.3-24.4-17.3c-3.9-1.4-7.5-2.4-11.5-3.2l0,0c0,0-0.1,0-0.1,0
			c-53.1-10.2-91,24.4-69,54.2c2.8,3.9,8.4,8.4,12.2,10.4C207.2,340.3,276.5,308.5,251.5,269.1z"/>
		<path class="st8" d="M150.2,275c-0.8,7.6,3.7,15.3,13.6,21.2c18.6,11.1,49.1,11.4,68.3,0.7c10.2-5.7,15.1-13.5,14.6-21.1
			c0,0-21.4,12.5-45.7,12.5C176.7,288.4,150.2,275,150.2,275z"/>
		<path class="st10" d="M246.6,275.8c-0.4-6.7,14.9-25.8-13.6-42.4c-18.7-10.9-49.1-11.3-68.3-0.7c-24.1,13.3-13.8,35.6-14.5,42.3
			c0,0,26.3,17.8,50.2,17.8C224.2,292.8,246.6,275.8,246.6,275.8z"/>
		<linearGradient id="SVGID_5_" gradientUnits="userSpaceOnUse" x1="140.0051" y1="262.132" x2="256.6208" y2="262.132">
			<stop  offset="0" style="stop-color:#FFFFFF"/>
			<stop  offset="1" style="stop-color:#D3DDE7"/>
		</linearGradient>
		<path class="st11" d="M251.8,246.7C251.8,246.7,251.8,246.7,251.8,246.7c-1-1.5-2.1-2.9-3.3-4.2c-0.4-0.8-4-3.8-4.7-4.4
			c-11.6-9.2-23-10.8-24.4-11.4c-1.2,0-18.7-5.3-39.8-0.6c-26,5.2-35.9,19.4-38.4,28.4l0,0c0,0,0,0,0,0
			c-13.2,44.7,78.9,64.2,110.4,23.6C257.9,269.1,258.6,257.5,251.8,246.7z M233.3,274.3c-19.1,10.7-49.7,10.4-68.3-0.7
			c-18.6-11.1-18.2-28.8,1-39.6c19.1-10.7,49.7-10.4,68.3,0.7C252.8,245.9,252.4,263.6,233.3,274.3z"/>
		<linearGradient id="SVGID_6_" gradientUnits="userSpaceOnUse" x1="199.3914" y1="155.1332" x2="179.8176" y2="277.155">
			<stop  offset="0" style="stop-color:#F7DA5C"/>
			<stop  offset="1" style="stop-color:#F15DAB"/>
		</linearGradient>
		<path class="st12" d="M186.8,244.2v37c8.6,1.4,17.7,1.4,26.3-0.1v-36.9c0-0.6-1.2-56.6,32.3-90.5c1.2-1.2,1.2-3.2,0-4.3
			c-1.2-1.2-3.2-1.2-4.3,0c-28.1,28.4-33.1,70.1-33.9,87.2c-2.1-1.4-4.6-2.2-7.2-2.2c-2.6,0-5,0.8-7.1,2.1
			c-0.9-17.2-5.9-58.7-33.9-87.1c-1.2-1.2-3.1-1.2-4.3,0c-1.2,1.2-1.2,3.1,0,4.3C188,187.6,186.8,243.5,186.8,244.2z"/>
		<g>
			<linearGradient id="SVGID_7_" gradientUnits="userSpaceOnUse" x1="122.8956" y1="133.9581" x2="129.0864" y2="133.9581">
				<stop  offset="0" style="stop-color:#65B6FC"/>
				<stop  offset="1" style="stop-color:#8548F0"/>
			</linearGradient>
			<path class="st13" d="M123.9,132.8c-0.9,0.7-1.2,1.6-1,2.7c0.2,1.1,1.5,1,3,0.5c1.4-0.5,4.1-2.7,2.9-4
				C127.6,130.8,125.3,131.7,123.9,132.8z"/>
			<linearGradient id="SVGID_8_" gradientUnits="userSpaceOnUse" x1="156.9675" y1="72.2918" x2="164.5202" y2="72.2918">
				<stop  offset="0" style="stop-color:#65B6FC"/>
				<stop  offset="1" style="stop-color:#8548F0"/>
			</linearGradient>
			<path class="st14" d="M157,73.4c1-2.4,1.3-3.3,3.5-4.8c2.2-1.6,3.7-0.1,4.1,1.2c0.3,1.3-1.6,6-4.3,6.8
				C157.6,77.4,157,73.4,157,73.4z"/>
			<linearGradient id="SVGID_9_" gradientUnits="userSpaceOnUse" x1="133.8005" y1="106.8007" x2="242.7699" y2="106.8007">
				<stop  offset="0" style="stop-color:#65B6FC"/>
				<stop  offset="1" style="stop-color:#8548F0"/>
			</linearGradient>
			<path class="st15" d="M133.8,145.8c0,0,1.2,5.8,3.4,7.2c2.2,1.4,3,1.9,6,0.4c2-1,98.9-50.3,98.9-50.3s1.4-3.2,0.1-10.1
				c-1.3-6.9-17.8-34.4-46.3-33.7c-17.6,0.5-33.6,12.2-45,30.5c-0.6,1-7.1-6.3-10.1-4.3c-7.1,4.6,1.9,14.3,6.1,11.4
				C135.4,119.1,133.8,145.8,133.8,145.8z"/>
			<linearGradient id="SVGID_10_" gradientUnits="userSpaceOnUse" x1="144.0345" y1="82.7435" x2="154.5009" y2="82.7435">
				<stop  offset="0" style="stop-color:#65B6FC"/>
				<stop  offset="1" style="stop-color:#8548F0"/>
			</linearGradient>
			<path class="st16" d="M145.3,88.3c-1.4-2.9-1.9-7.5,0.1-9.4c2-2,5.1-2.5,7.3,0.1c2.3,2.6,2.7,6.6-0.5,7.4
				C149,87.1,145.3,88.3,145.3,88.3z"/>
			<linearGradient id="SVGID_11_" gradientUnits="userSpaceOnUse" x1="146.7715" y1="134.6569" x2="122.4367" y2="140.0052">
				<stop  offset="0" style="stop-color:#65B6FC"/>
				<stop  offset="1" style="stop-color:#8548F0"/>
			</linearGradient>
			<path class="st17" d="M134.5,142.4c3.6-0.9,5.3,1.4,5.9-2.8c0.6-4.3-1.4-6.9-5.6-7.8c-4.3-0.9-7.2,5.3-3.7,8
				C134.5,142.4,134.5,142.4,134.5,142.4z"/>
			<linearGradient id="SVGID_12_" gradientUnits="userSpaceOnUse" x1="122.7132" y1="109.1822" x2="142.25" y2="109.1822">
				<stop  offset="0" style="stop-color:#65B6FC"/>
				<stop  offset="1" style="stop-color:#8548F0"/>
			</linearGradient>
			<path class="st18" d="M130.2,103c0.3-3.3-0.5-4.4,0.9-7c1.4-2.6,6.7-5.1,10.8-3.1c-2.1,1.4-0.3,3.5-0.1,5.9
				c0.6,5.5,1.2,13.4-1.8,20c-4.2,9.5-18,10-17.3,0.6C123.9,114.5,130.2,103,130.2,103z"/>
			<linearGradient id="SVGID_13_" gradientUnits="userSpaceOnUse" x1="131.1278" y1="125.7925" x2="138.9333" y2="125.7925">
				<stop  offset="0" style="stop-color:#65B6FC"/>
				<stop  offset="1" style="stop-color:#8548F0"/>
			</linearGradient>
			<path class="st19" d="M132.3,128c-1.4-2.1-1.7-3.3-0.4-4.9c1.3-1.6,2.6-1.1,3.9-0.1c1.3,1,4.2,4.2,2.5,5.6
				C135.6,131.1,132.3,128,132.3,128z"/>
			<linearGradient id="SVGID_14_" gradientUnits="userSpaceOnUse" x1="258.4359" y1="122.5768" x2="277.3372" y2="122.5768">
				<stop  offset="0" style="stop-color:#65B6FC"/>
				<stop  offset="1" style="stop-color:#8548F0"/>
			</linearGradient>
			<path class="st20" d="M276.3,120.5c0.7-1.6,1.3-2.1,1-3.7c-0.3-1.6-2.6-2.5-4.9-2.1c-2.3,0.4-13-0.2-13.9,3.9
				c-0.9,4.1,8.8,11.5,12.1,11.8c3.3,0.3,5.5-5.4,5.5-5.4L276.3,120.5z"/>
			<linearGradient id="SVGID_15_" gradientUnits="userSpaceOnUse" x1="241.8313" y1="87.1346" x2="259.1584" y2="87.1346">
				<stop  offset="0" style="stop-color:#65B6FC"/>
				<stop  offset="1" style="stop-color:#8548F0"/>
			</linearGradient>
			<path class="st21" d="M255.5,82.8c-0.2-1.6,0.4-2-0.9-3.2c-1.3-1.2-3.8-0.8-6.2,1.8c-2.5,2.7-8,8.5-6.2,11.5
				c1.9,3,14.8,2.2,14.8,2.2l2.1-6.3L255.5,82.8z"/>
			<linearGradient id="SVGID_16_" gradientUnits="userSpaceOnUse" x1="210.5092" y1="66.0553" x2="216.7888" y2="66.0553">
				<stop  offset="0" style="stop-color:#65B6FC"/>
				<stop  offset="1" style="stop-color:#8548F0"/>
			</linearGradient>
			<path class="st22" d="M210.6,64.2c0.8-1.2,1.6-1.9,3.2-1.9c1.6,0,3.1,0.8,2.9,4.1c-0.2,3.4-4.7,4.4-5.7,2.1
				C210.1,66.3,210.6,64.2,210.6,64.2z"/>
			<linearGradient id="SVGID_17_" gradientUnits="userSpaceOnUse" x1="149.5513" y1="139.3059" x2="220.5128" y2="139.3059">
				<stop  offset="0" style="stop-color:#65B6FC"/>
				<stop  offset="1" style="stop-color:#8548F0"/>
			</linearGradient>
			<path class="st23" d="M153.5,149.4c-3.3,4.1-5.1,7.4-3.2,10.6c1.7,2.8,9.2,2.8,14.2,0.1c0.5-0.3,4.1,4.8,5.1,4.7
				c5.9-0.6,13.2,3.4,20.1,4.5c2.2,0.3,2.4-1.3,3-2.2c0.9-1.2,10.7-1.9,11.1-1.5c3.2,2.5,11.6,3.8,13.8,2.8
				c8.2-3.8-4.1-15.7-7.2-19.1c-3.1-3.4,1.5-19.1,2.1-27.9c0.6-8.9-7.9-18.8-16.1-5.8c-8.1,13-24.9,22.6-32.1,24.5
				C157.3,141.9,153.5,149.4,153.5,149.4z"/>
			<linearGradient id="SVGID_18_" gradientUnits="userSpaceOnUse" x1="206.5143" y1="136.7821" x2="220.9188" y2="136.7821">
				<stop  offset="0" style="stop-color:#65B6FC"/>
				<stop  offset="1" style="stop-color:#8548F0"/>
			</linearGradient>
			<path class="st24" d="M212.9,133.7c-1.6,0.1-5.3,2.3-6.2,3.5c-0.8,1.1,0.3,2.5,2.9,2.7c2.5,0.2,11.8,0.1,11.3-3.2
				C220.4,133.3,216.3,133.5,212.9,133.7z"/>
			<linearGradient id="SVGID_19_" gradientUnits="userSpaceOnUse" x1="164.7415" y1="141.8087" x2="172.1091" y2="141.8087">
				<stop  offset="0" style="stop-color:#65B6FC"/>
				<stop  offset="1" style="stop-color:#8548F0"/>
			</linearGradient>
			<path class="st25" d="M172.1,143.1c-0.8,1.3-1.6,2.5-3,2.7c-2.2,0.4-4.9-2.7-4.3-5.1c0.6-2.4,4.4-4,5.8-1.8
				C172.1,140.9,172.1,143.1,172.1,143.1z"/>
			<linearGradient id="SVGID_20_" gradientUnits="userSpaceOnUse" x1="169.656" y1="163.2274" x2="192.8191" y2="163.2274">
				<stop  offset="0" style="stop-color:#65B6FC"/>
				<stop  offset="1" style="stop-color:#8548F0"/>
			</linearGradient>
			<path class="st26" d="M169.7,164.8c5.9-0.6,13.2,3.4,20.1,4.5c2.2,0.3,2.4-1.3,3-2.2l0-10l-12.9,0.8L169.7,164.8z"/>
			<linearGradient id="SVGID_21_" gradientUnits="userSpaceOnUse" x1="167.9782" y1="158.9017" x2="175.7455" y2="158.9017">
				<stop  offset="0" style="stop-color:#65B6FC"/>
				<stop  offset="1" style="stop-color:#8548F0"/>
			</linearGradient>
			<path class="st27" d="M170.6,155.1c1.4-0.7,0.7-0.8,2.1-1.1c1.5-0.3,2.9-0.2,3.1,2.4c0.1,2.6-1.9,7.1-4.6,7.5
				c-2.7,0.4-3.9-2.4-2.7-4.9C169.6,156.6,170.6,155.1,170.6,155.1z"/>
			<linearGradient id="SVGID_22_" gradientUnits="userSpaceOnUse" x1="247.7357" y1="105.7546" x2="269.8432" y2="105.7546">
				<stop  offset="0" style="stop-color:#65B6FC"/>
				<stop  offset="1" style="stop-color:#8548F0"/>
			</linearGradient>
			<path class="st28" d="M265.3,113.4c4.4-6.7,5.4-14.3,3.8-17.2c-1.6-2.9-6.4-4.1-12.3,1.6c-5.9,5.7-12.7,13-6.7,17.3
				C256.2,119.4,262.2,118.1,265.3,113.4z"/>
			<linearGradient id="SVGID_23_" gradientUnits="userSpaceOnUse" x1="162.7616" y1="90.8425" x2="177.2931" y2="90.8425">
				<stop  offset="0" style="stop-color:#65B6FC"/>
				<stop  offset="1" style="stop-color:#8548F0"/>
			</linearGradient>
			<path class="st29" d="M170,99.4c-6.2-1.8-9-9.9-6-14.5c3-4.6,9.1-3,11.8,0.5C178.4,88.9,178.4,101.8,170,99.4z"/>
			<linearGradient id="SVGID_24_" gradientUnits="userSpaceOnUse" x1="146.8822" y1="110.097" x2="272.8205" y2="110.097">
				<stop  offset="0" style="stop-color:#65B6FC"/>
				<stop  offset="1" style="stop-color:#8548F0"/>
			</linearGradient>
			<path class="st30" d="M272.8,138c-0.8,3.8-0.7,6.5-3.8,9.2c-3.1,2.7-10,2.7-13.3-2c-3.3-4.7-13.5,5.1-19.9,9.7
				c-12.9,9.4-20.7-7-17.5-14.9c3.3-8-5.1-49.4-16.5-30.8c-11.4,18.5-18.9,24.8-28.1,28.2c-23.1,8.4-27.6-2.4-26.8-8.1
				c0.6-4.8,4-7.1,10.9-7c6.9,0.1,21.6-24,25.7-33.8c4.1-9.8,4.2-19.2,5.2-21.7c1-2.5,0.3-1.9,4.5-3.9c4.2-1.9,8.3,2.5,11.8,6.8
				c2.7,3.3,25.6,0,31.7,9.7c6.1,9.8,10.3,19.6,5.5,30.3c-4.7,10.6,12.8,15.1,19.2,14.9C268.1,124.3,272.8,138,272.8,138z"/>
			<linearGradient id="SVGID_25_" gradientUnits="userSpaceOnUse" x1="204.9313" y1="96.1192" x2="226.508" y2="96.1192">
				<stop  offset="0" style="stop-color:#65B6FC"/>
				<stop  offset="1" style="stop-color:#8548F0"/>
			</linearGradient>
			<path class="st31" d="M221,87.2c1.8-0.3,3-0.9,4.5,0.2c1.5,1.1,1.3,2.5-0.6,4.3c-1.9,1.8-4.5,5.4-4.3,8.5
				c0.2,3.1-4.7,8.7-7.1,2.4c-2.4-6.3-6.7-3.5-7.6-6.6c-0.9-3.2-2.5-5.9,2.8-5.5C214.1,90.7,221,87.2,221,87.2z"/>
			<linearGradient id="SVGID_26_" gradientUnits="userSpaceOnUse" x1="212.1785" y1="126.6402" x2="223.4837" y2="126.6402">
				<stop  offset="0" style="stop-color:#65B6FC"/>
				<stop  offset="1" style="stop-color:#8548F0"/>
			</linearGradient>
			<path class="st32" d="M222.7,126c0.7-2.1,0.8-1.3,0.7-2.6c-0.1-1.3-2.5-2.5-4.9-1c-2.4,1.4-5.3,2.3-6.2,4.9
				c-0.9,2.6,2.6,5.7,5.6,3.6C220.9,128.8,222.7,126,222.7,126z"/>
			<linearGradient id="SVGID_27_" gradientUnits="userSpaceOnUse" x1="220.1594" y1="160.1614" x2="241.4762" y2="160.1614">
				<stop  offset="0" style="stop-color:#65B6FC"/>
				<stop  offset="1" style="stop-color:#8548F0"/>
			</linearGradient>
			<path class="st33" d="M233.2,164.3c2.7-0.1,3,0,5.5-0.6c2.6-0.5,3.6-2.7,2-4.4c-1.5-1.7-11.7-3.3-14.6-5c-2.9-1.7-7.5,0-5.5,3.6
				c2,3.6-0.8,6.7,0.2,8c1,1.2,4.9,0.7,6.5-0.1C228.8,165,233.2,164.3,233.2,164.3z"/>
			<linearGradient id="SVGID_28_" gradientUnits="userSpaceOnUse" x1="240.2939" y1="145.5502" x2="257.7669" y2="145.5502">
				<stop  offset="0" style="stop-color:#65B6FC"/>
				<stop  offset="1" style="stop-color:#8548F0"/>
			</linearGradient>
			<path class="st34" d="M242.1,141.6c-0.1-1.8-0.1-2.7,1.4-3.9c1.6-1.2,3,0,4,1.5c1,1.5,6.3,5.1,8.2,5.9c1.8,0.8,3.8,6.4-0.7,6
				c-4.5-0.4-8.7,1.2-9.9,2c-1.2,0.9-6.4,1.1-4.4-3.4C242.7,145.4,242.1,141.6,242.1,141.6z"/>
			<linearGradient id="SVGID_29_" gradientUnits="userSpaceOnUse" x1="231.8007" y1="115.4667" x2="253.2252" y2="115.4667">
				<stop  offset="0" style="stop-color:#65B6FC"/>
				<stop  offset="1" style="stop-color:#8548F0"/>
			</linearGradient>
			<path class="st35" d="M241.9,124.3c-3.9,0.5-8.8-0.7-9.7-2.7c-0.9-2-0.1-3.2,1.6-3.4c1.7-0.2,7.7-5,7.8-7.9
				c0.2-2.9,3.9-5.8,5-1.8c1.1,4.1,3.6,6.8,5.7,8.4c2.1,1.6,0.2,5.2-3.6,4.9C245,121.5,241.9,124.3,241.9,124.3z"/>
			<linearGradient id="SVGID_30_" gradientUnits="userSpaceOnUse" x1="225.2458" y1="74.5573" x2="237.2625" y2="74.5573">
				<stop  offset="0" style="stop-color:#65B6FC"/>
				<stop  offset="1" style="stop-color:#8548F0"/>
			</linearGradient>
			<path class="st36" d="M235.4,68c1.4,0.4,2.1,1.5,1.7,3.6c-0.4,2.1-1.4,6.1-1.3,8.1c0.1,2-3.3,3.2-4.6,1.5c-1.1-1.3-6-9.8-6-9.8
				l0.7-4.2l5,0.6C230.9,67.7,234,67.6,235.4,68z"/>
			<linearGradient id="SVGID_31_" gradientUnits="userSpaceOnUse" x1="175.3279" y1="80.8515" x2="203.9944" y2="80.8515">
				<stop  offset="0" style="stop-color:#65B6FC"/>
				<stop  offset="1" style="stop-color:#8548F0"/>
			</linearGradient>
			<path class="st37" d="M191,84c2.4-0.1,3.9,0.4,5.6-0.6c1.7-1,2.4-2.9-0.2-5.2c-2.6-2.4-16-6.6-16-6.6l-5.1,6.9l3.2,11.8L191,84z"
				/>
			<linearGradient id="SVGID_32_" gradientUnits="userSpaceOnUse" x1="192.3883" y1="107.5975" x2="213.1609" y2="107.5975">
				<stop  offset="0" style="stop-color:#65B6FC"/>
				<stop  offset="1" style="stop-color:#8548F0"/>
			</linearGradient>
			<path class="st38" d="M192.6,108.1c-0.1-2.2-0.5-3.6,0.1-5.2c0.7-1.6,1.7-1.8,3.7-1.5c2,0.4,11.5-1.1,14.6,2.3
				c3.1,3.4,2.9,11.2-1.8,8.3c-4.7-2.9-8.3-2.5-8.3-2.5s-3.5,6.8-7.3,3.6C192.2,111.7,192.6,108.1,192.6,108.1z"/>
			<linearGradient id="SVGID_33_" gradientUnits="userSpaceOnUse" x1="167.3552" y1="103.6319" x2="187.1483" y2="103.6319">
				<stop  offset="0" style="stop-color:#65B6FC"/>
				<stop  offset="1" style="stop-color:#8548F0"/>
			</linearGradient>
			<path class="st39" d="M179.9,105.1c2.2-1.3,2.5-0.8,3.4-2.6c0.9-1.8-1.3-3.6-4-3.2c-2.7,0.4-12,3.1-12,3.1l1.4,5.5L179.9,105.1z"
				/>
			<linearGradient id="SVGID_34_" gradientUnits="userSpaceOnUse" x1="154.1455" y1="110.5721" x2="171.8755" y2="110.5721">
				<stop  offset="0" style="stop-color:#65B6FC"/>
				<stop  offset="1" style="stop-color:#8548F0"/>
			</linearGradient>
			<path class="st40" d="M155.1,107.3c-0.5-1.6-1.2-2.8-0.8-4.5c0.3-1.7,1.6-2.5,4.3-2c2.7,0.5,13.2,9.8,13.3,12.7
				c0.2,2.9-6.7,4.5-7.8,3.2c-1-1.3-5.3,6.1-6.8,2.6C155.8,116,155.1,107.3,155.1,107.3z"/>
			<linearGradient id="SVGID_35_" gradientUnits="userSpaceOnUse" x1="173.9231" y1="132.5527" x2="189.4514" y2="132.5527">
				<stop  offset="0" style="stop-color:#65B6FC"/>
				<stop  offset="1" style="stop-color:#8548F0"/>
			</linearGradient>
			<path class="st41" d="M179.7,129.5c0.1-1.6-0.1-2.4,0.7-3.7c0.8-1.3,3.3-2,5.1,0.1c1.7,2.1,5.3,9.9,3.5,12.5
				c-1.8,2.7-10.6,1.9-10.6,1.9s-6.6-2.5-3.7-5.9C177.6,131.2,179.7,129.5,179.7,129.5z"/>
			<linearGradient id="SVGID_36_" gradientUnits="userSpaceOnUse" x1="145.2522" y1="145.2123" x2="160.5146" y2="145.2123">
				<stop  offset="0" style="stop-color:#65B6FC"/>
				<stop  offset="1" style="stop-color:#8548F0"/>
			</linearGradient>
			<path class="st42" d="M146.3,146.8c-0.7-0.4-1-0.5-1.1-1.4c-0.1-0.9,1.1-1.6,2.8-2.4c1.8-0.7,5-5.7,8.1-5.6
				c3.1,0,4.1,1.4,4.4,3.9c0.3,2.6-5.9,7.1-7.4,8.9c-1.5,1.8-4.9,4.4-5.4,1.7C147.1,149.1,146.3,146.8,146.3,146.8z"/>
			<radialGradient id="SVGID_37_" cx="157.3874" cy="91.6098" r="120.3344" gradientUnits="userSpaceOnUse">
				<stop  offset="0" style="stop-color:#78FFD6"/>
				<stop  offset="0.1867" style="stop-color:#72FAD9"/>
				<stop  offset="0.4478" style="stop-color:#5FECE2"/>
				<stop  offset="0.7511" style="stop-color:#42D4F0"/>
				<stop  offset="1" style="stop-color:#24BDFF"/>
			</radialGradient>
			<path class="st43" d="M182,153.6c-0.5,0-1-0.1-1.4-0.1c-4.4,0.7-7.8,3.6-8.8,7.3c-0.6,2.1-3.5,2-2.9-0.9c0.4-1.9,1.4-4.9,3.7-5.9
				c-8.2,1.4-14.6,5.2-14.1,9.3c9.5,3.3,20.2,5.3,31.2,5.9c-1.6-0.2-1.5-2.3-1.9-3.6c-2-1.9-4.9-2.9-6.5-3c-1.8-0.1-1.6-2,0-2.1
				c0.8-0.1,4.7,0.5,6,2.1c0-1,0-1.9,0.2-2.8c0.4-1.8,3.1-1.9,3,0.4c-0.2,4.1,0,8.8,4.4,9.3c4.3,0.1,8.7,0,13-0.3
				C208.4,160.4,193.4,154.4,182,153.6z"/>
			<g>
				<radialGradient id="SVGID_38_" cx="157.3863" cy="91.6099" r="120.3357" gradientUnits="userSpaceOnUse">
					<stop  offset="0" style="stop-color:#78FFD6"/>
					<stop  offset="0.1867" style="stop-color:#72FAD9"/>
					<stop  offset="0.4478" style="stop-color:#5FECE2"/>
					<stop  offset="0.7511" style="stop-color:#42D4F0"/>
					<stop  offset="1" style="stop-color:#24BDFF"/>
				</radialGradient>
				<path class="st44" d="M273.9,120.3c-1.4,2.4-1.6,4.6-1.3,6.1c0.3,1.9-2.2,2.3-2.8,0.5c-0.2-0.7-0.4-3.6,0.4-5.7
					c-2.9,0.6-5.9,0.3-8.5-0.6c-1.9-0.7-1.4-3.1,1.1-2.6c4.6,1,8.2,1,11.5-2.6c1.2-1.3,2.1-2.3,1.7-3.7c-1.6-5.5-3.9-10.7-6.9-15.6
					c2.1,5.4-2.5,12.2-7.5,16.1c-2.5,2-4.4,2.2-5.4,2.2c-1.3,0.1-2.5-0.4-3.5-1.3c-1.6-1.6-1.4-4.5,1.5-6.9
					c6.2-5.4,12.1-15.5,4.3-23.3c-1.2-1.2-2.5-2.3-3.9-3.5c0.8,1.4-1.1,4.2-1.4,4.7c0.2,3,1.9,5.8,3.2,7c1.5,1.3-0.3,3-1.9,1.9
					c-0.7-0.5-3-3-3.5-5.1c-1,1.3-2.2,2.6-3.6,3.6c-2.2,1.7-4-0.5-2.7-1.6c5.5-4.3,8.8-11.4,7.2-12.6c-4.2-3.2-8.8-6-13.7-8.3
					c-2.5-0.9-5.9,12.2-3.3,15.5c5.5,6.7,5.6,15.9-0.1,24.4c-2,3-3,6-3.1,8.7c0,2.2,3.6,2.8,6.8,1.2c4.2-2.1,4.8-5,4.6-9
					c-0.1-2.2,2.4-2.2,2.8-0.5c0.5,2.2,0.3,4.8-0.9,7.1c2.2-0.3,5.1,0.3,5.8,0.6c1.7,0.8,0.8,2.8-1,2.2c-1.5-0.5-4.3-0.6-7,0.1
					c-0.9,0.8-2,1.5-3.3,2c-3.6,1.4-5.8,1.3-7.1-0.1c0.3,0.7,0.6,1.4,1.1,2.1c2.5,3.3,7.7,4.7,14.5,3.9c0.6-0.1,1.1-0.2,1.7-0.2
					c8.6-1.3,17.5,0.6,20.9,8.4c1.8,4.2,1.4,8.4-1.4,11.5c6.6-6.4,9.7-13.4,9.4-20.3l0,0c-0.1-3.4-0.5-6.8-1.2-10.1
					C277.3,118.4,276,119.3,273.9,120.3z"/>
				<radialGradient id="SVGID_39_" cx="157.3849" cy="91.6117" r="120.3391" gradientUnits="userSpaceOnUse">
					<stop  offset="0" style="stop-color:#78FFD6"/>
					<stop  offset="0.1867" style="stop-color:#72FAD9"/>
					<stop  offset="0.4478" style="stop-color:#5FECE2"/>
					<stop  offset="0.7511" style="stop-color:#42D4F0"/>
					<stop  offset="1" style="stop-color:#24BDFF"/>
				</radialGradient>
				<path class="st45" d="M231.6,76.5c-1-2.5-3-4.6-4.4-5.4c-1.8-1-0.4-3,1.4-2.2c0.7,0.3,2.5,1.3,3.6,3.1c0.7-1.9,1.6-4.1,3.2-3.9
					c-5-2.1-10.3-3.7-15.8-4.8c-1.9,0.1-4.1,1-4.1,3.4c0,2.5-3.3,2.5-3.8-0.3c-0.3-2.2,0.3-3.6,2.1-4.1c-3.8-0.5-7.7-0.7-11.6-0.6
					c-4.5,0.2-4.4,12.3,16.2,14.5c4.9,0.5,9.4,2.3,12.8,5C230.5,80.2,231.1,77.8,231.6,76.5z"/>
			</g>
			<radialGradient id="SVGID_40_" cx="157.3865" cy="91.61" r="120.3342" gradientUnits="userSpaceOnUse">
				<stop  offset="0" style="stop-color:#78FFD6"/>
				<stop  offset="0.1867" style="stop-color:#72FAD9"/>
				<stop  offset="0.4478" style="stop-color:#5FECE2"/>
				<stop  offset="0.7511" style="stop-color:#42D4F0"/>
				<stop  offset="1" style="stop-color:#24BDFF"/>
			</radialGradient>
			<path class="st46" d="M188.2,82.2c-3.3,0.3-6.4,2-7.7,3.2c-1.4,1.4-3.3-0.1-2.2-1.6c0.5-0.7,3.2-2.9,5.6-3.4
				c-1.5-0.8-2.9-1.8-4.1-3.1c-1.9-1.9,0.5-3.6,1.7-2.5c2.3,2.2,4.7,3.9,9,5.1c3.3,0.9,6.4,1.8,10,0.5c0.9-0.5,1.7-1,2.6-1.5
				c-10.7-4.4-13.4-12.7-9.9-16c-7.3,1.8-14.2,5.8-20.3,11.5c-3.6,5-1.1,12.3,1.2,17.4c1.4,3-0.3,5.3-4.1,5
				c-3.9-0.3-8.2-6.9-6.2-11.9c-2.6,3.7-5,7.8-7.1,12.1c-1.1,3.8,0.4,6.6,3.2,9.9c2.8,3.2,5.4,4.6,8.5,5.8c1.6,0.6,0.7,3.2-2,2.3
				c-2-0.7-3.9-1.8-5.4-3c0.2,1.8-0.7,4.1-1.1,4.6c-0.9,1.3-2.8,0.5-2.1-0.9c0.7-1.3,1-4.1,0.1-6.5c-1.8-1.8-4.2-4-3.9-6.3
				c-1.7,4.2-3.2,8.7-4.5,13.4c-1.4,5.8,4,12.5,12.9,11c9.5-1.6,13.5-7.6,18.4-19.4c0.7-1.7,1.5-3.5,2.3-5.3
				c-2.5,2.9-7.6,3.4-11.9,3.2c-2.9-0.1-2.5-2.8-0.8-2.8c3.4,0.1,6.4-0.4,10.4-2.3c1.8-0.9,3.4-2,4.8-3.3c2.6-4.9,5.9-9.7,10.8-13.9
				C193.8,84.7,188.8,82.3,188.2,82.2z"/>
			<g>
				<radialGradient id="SVGID_41_" cx="157.3881" cy="91.6087" r="120.3379" gradientUnits="userSpaceOnUse">
					<stop  offset="0" style="stop-color:#78FFD6"/>
					<stop  offset="0.1867" style="stop-color:#72FAD9"/>
					<stop  offset="0.4478" style="stop-color:#5FECE2"/>
					<stop  offset="0.7511" style="stop-color:#42D4F0"/>
					<stop  offset="1" style="stop-color:#24BDFF"/>
				</radialGradient>
				<path class="st47" d="M151.7,142c0.8-1.5,2-4.2,4.4-4.6c-4.6-0.4-8.8-2.7-9.2-8.2c-0.8,4.8-1.3,9.3-1.6,14
					C146.3,144.9,149.5,143.1,151.7,142z"/>
				<radialGradient id="SVGID_42_" cx="157.3872" cy="91.6106" r="120.333" gradientUnits="userSpaceOnUse">
					<stop  offset="0" style="stop-color:#78FFD6"/>
					<stop  offset="0.1867" style="stop-color:#72FAD9"/>
					<stop  offset="0.4478" style="stop-color:#5FECE2"/>
					<stop  offset="0.7511" style="stop-color:#42D4F0"/>
					<stop  offset="1" style="stop-color:#24BDFF"/>
				</radialGradient>
				<path class="st48" d="M259.9,139.4c-1.4-3.4-4.6-4.8-9.1-4.1c-4.3,0.7-4.9,3.1-4.8,4.3c0.5,4.6,3.4,6.4,7.9,7.8
					c2.4,0.8,1.3,3-0.7,2.7c-2.3-0.4-4.7-1.4-6.5-3c-0.3,2.1-1.8,4.6-2.4,5.1c-1.4,1.4-3.5,0-2.2-1.5c1-1.3,2-4.1,1.9-6.9
					c-0.7-1.3-1.6-4.7-0.3-6c-4.7,2.8-7.7,8.3-8.4,12.5c-0.3,1.9-2.2,3.4-4.2,3.4c-0.3,0-0.6,0-0.8,0c-2.4-0.3-4.1-2.4-3.7-4.5
					c0.3-1.7,0.8-3.4,1.5-5.1c-1.8,0.5-4.3,0.9-5.8,0.9c-2.1,0.1-2.4-2.2,0.4-2.3c2.3-0.1,5.1-0.7,7.1-1.9c1.4-2.3,3.1-4.5,5.2-6.5
					c-3.7-1.3-6.7-3.3-8.8-6.1c-1.1-1.5-1.9-3.1-2.5-4.8c-0.1,1.7-3.5,5.3-8.8,6.4c-2,0.4-2.4-1.9-0.7-2.2c1.4-0.2,3.4-1.1,5.6-3
					c1.6-1.3,3.2-3.3,3.2-6.1c0-4.3,1.5-8.9,4.4-13.4c3.2-4.8,3.8-9.5,2-13.4c-1.5-2-4.4-2.4-7.5-0.3c-4.1,2.8-4.2,6.1-3.2,10.3
					c0.5,2.3-2.2,2.7-2.9,0.9c-0.9-2.3-1.2-5.1-0.4-7.6c-2.3,0.7-5.5,0.4-6.3,0.2c-1.9-0.6-1.4-2.9,0.7-2.5c1.7,0.3,4.7,0,7.4-1.2
					c2-3.2,6.8-4.8,8.5-4.1c0,0-0.1,0-0.1-0.1c-1.6-1.2-5.2-3.1-9-3.3c-3.8-0.2-8,0.8-11.9,3.7c-4.2,3.1-7.1,6.9-9.5,10.9
					c-0.3,0.5-1.1,3.3,1.3,4.6c5.3,2.8,11.6-3.2,15.2,5.6c0.9,2.1-1.5,2.6-2.3,1c-3.4-6.9-6.6-2.2-11.6-3.8c0.5,1.6,0.7,3.4,0.1,5.1
					c-0.6,1.8-2.8,1.4-2.5-0.3c0.5-3.1-3.2-5.3-2.4-8c-1.2,2.5-2.3,5.1-3.4,7.7c-1.3,3-2.7,6.1-4.5,9c-1.2,2.7-1.8,5.7-1.5,8.7
					c0.4,4.1,1.7,6.6,3.6,9c1,1.3-1.3,3-3,1c-1.1-1.3-1.9-2.9-2.5-4.4c-0.9,1.7-3.1,3.3-3.8,3.6c-1.5,0.7-2.7-1-1.2-1.8
					c1.3-0.8,3.2-2.9,4-5.3c-0.6-1.2-0.7-3.2-0.1-4.5c-4.3,5.1-10,9.2-17.7,11c-0.5,0.1-1,0.2-1.4,0.3c-2.7,0.5-4.1,2.1-5.4,3.7
					c-2.5,3.4-3.7,6.2-4.3,9.2c-0.3,1.6-3.3,1.4-2.9-1.2c0.2-1.3,0.6-2.7,1.2-3.9c-1.3,0.9-3.9,1.9-4.7,0.4c-0.1,3.2-0.1,6.5,0,10
					c0,0,0.1,3.4,5.1,4.6c-1.4-3.9,3-7.5,5.7-9.6c2.8-2.1,6-3.3,9.5-4.1c1.5-0.9,1.9-2.8,1.5-5.6c-0.2-1.6,2.5-1.4,3,1
					c0.3,1.3,0.3,3.4-0.9,3.9c4.3-0.5,8.9-0.4,13.2-0.2c6.9-0.2,11.4-1.4,13.6-3.4c2.2-2.2,2.1-5.8,1.9-10.1c0-0.7-0.1-1.4-0.1-2.2
					c-1.7-1.6-3.4-2.7-5.4-3.6c-1.5-0.7-0.3-3.2,2.2-2.1c1.2,0.5,2.3,1.2,3.3,1.9c0.3-3,1.1-6.1,3.3-8.7c1.5-1.8,4.3-2.1,6.2-0.8
					c1.9,1.3,2.3,3.8,0.8,5.6c-1.8,2.1-1.6,5.7-1.5,9.5c0.1,1.8,0.5,3.9,0,5.6c2.4-2.4,7.6-2.4,10.3-1.9c3.3,0.6,1.9,2.7-0.5,2.4
					c-4.3-0.6-9.7,0.9-10.9,4.9c-0.7,1.8-1.7,3.5-3.3,5c-1,1-2.2,1.8-3.5,2.5c6.5,0.7,11.7,3.8,15,7c3.1,3.1,7.5,9.7,3.8,11.2
					c7.3-1,14.3-2.5,21-4.6c-2,0.3-5.3-0.1-7.3-1.1c-2.8,0.2-5.4,1.6-6.5,2.6c-1.2,1.2-2.8-0.1-1.8-1.4c0.4-0.5,2.6-2.2,4.5-2.7
					c-1.6-0.8-3.1-1.8-4.4-3c-1.9-1.9,0.4-3.7,1.6-2.5c2.3,2.2,4.8,4.2,9.2,5.2c4.1,1,10.8,1.1,16.6-1.8
					C260.3,153.8,262,144.5,259.9,139.4z"/>
			</g>
			<radialGradient id="SVGID_43_" cx="157.3938" cy="91.6091" r="120.3505" gradientUnits="userSpaceOnUse">
				<stop  offset="0" style="stop-color:#78FFD6"/>
				<stop  offset="0.1867" style="stop-color:#72FAD9"/>
				<stop  offset="0.4478" style="stop-color:#5FECE2"/>
				<stop  offset="0.7511" style="stop-color:#42D4F0"/>
				<stop  offset="1" style="stop-color:#24BDFF"/>
			</radialGradient>
			<path class="st49" d="M129,114.4c2.5-3,3.2-5.3,3.1-9.7c-0.2-4.3-2-6.1-1-8.7c-4.3,7.2-7.1,15.1-8.4,23.4
				C123.9,116.9,127.6,116.1,129,114.4z"/>
			<radialGradient id="SVGID_44_" cx="157.3874" cy="91.6102" r="120.333" gradientUnits="userSpaceOnUse">
				<stop  offset="0" style="stop-color:#78FFD6"/>
				<stop  offset="0.1867" style="stop-color:#72FAD9"/>
				<stop  offset="0.4478" style="stop-color:#5FECE2"/>
				<stop  offset="0.7511" style="stop-color:#42D4F0"/>
				<stop  offset="1" style="stop-color:#24BDFF"/>
			</radialGradient>
			<path class="st50" d="M195.3,59.3c-10.1,0.4-19.6,2.6-28.2,6.1c-3.5,1.4-5,5-5.8,8.7c-0.3,1.6-3.1,1.7-2.9-0.8
				c0.1-1.7,0.8-3.6,2-4.8c-2.9,1.5-5.6,3.1-8.2,4.9c-1.1,1.1-0.3,3.6,0.5,5.4c2.3,5.1-2.9,9.7-6.4,5.9c-1-1.1-2.4-3.6-0.9-5.9
				c-3.4,2.9-6.4,6.2-9.1,9.6c5.9,13.3,4.4,23-0.9,30.6c-0.3,0.5-0.7,1-1.1,1.5c-0.8,1.4-0.2,4.7,2.8,5.8c1.6,0.6,0.4,3.1-2.2,2.1
				c-2.1-0.8-3.8-3.1-2.9-5.4c-2.8,2.7-6.2,4.8-9.9,6.3c0,0.4,0,0.8,0,1.2l0,0c0.1,1.7,0.3,3.3,0.8,5c0.1-1.4,2.1-2.5,2.5-2.8
				c1.7-1.1,3.4,0.6,1.8,1.9c-1,0.9-3.7,2.8-2.9,4.6c2.4,4.9,6.7,9.6,12.8,13.6c1,0.7,3.1,1.9,3,0.7c-0.3-4.8-0.1-9.4,0.3-14
				c-1.1,2.2-4.2,1.2-5.6,0.5c-5.8-2.8-4.9-8.8-0.6-7.5c3.3,1,6.8-0.4,7.3-3.8c1.9-12.9,5.5-24.7,10.5-34.8c-2.7-1-5.2-0.4-8.3,0.9
				c-2.1,0.9-3-1.1-1.4-2.1c0.6-0.4,1.3-0.7,2.1-1c-2.1-0.9-4-3.5-4.2-4.2c-0.6-1.5,1.5-2.5,2.3-1c0.7,1.3,2.9,3.3,5.6,4.3
				c1.7-0.2,3.5,0,5.2,0.6c10.1-19.2,25.3-31.6,42.7-32.3L195.3,59.3z"/>
		</g>
		<linearGradient id="SVGID_45_" gradientUnits="userSpaceOnUse" x1="108.4646" y1="164.3822" x2="291.5334" y2="164.3822">
			<stop  offset="0" style="stop-color:#65B6FC"/>
			<stop  offset="1" style="stop-color:#8548F0"/>
		</linearGradient>
		<path class="st51" d="M200,46.6c-50.6,0-91.5,41-91.5,91.5c0,20.2,6.5,38.8,17.6,53.9c12.8,17.5,25.4,36.7,25.4,58.4l-0.1,5
			c0.5,6.6,5.1,13.1,13.6,18.2c18.6,11.1,49.2,11.4,68.3,0.7c9-5.1,13.9-11.6,14.5-18.4c0-2.2,0-4.6,0-5.2
			c0-21.5,12.3-40.4,25.3-57.6c11.6-15.3,18.4-34.3,18.4-55C291.5,87.6,250.5,46.6,200,46.6z"/>
		<linearGradient id="SVGID_46_" gradientUnits="userSpaceOnUse" x1="199.999" y1="249.2846" x2="199.999" y2="65.6469">
			<stop  offset="0" style="stop-color:#000000"/>
			<stop  offset="0.4181" style="stop-color:#005768"/>
			<stop  offset="1" style="stop-color:#00D6FF"/>
		</linearGradient>
		<path class="st52" d="M291.5,138.1c0-50.6-41-91.5-91.5-91.5c-50.6,0-91.5,41-91.5,91.5c0,20.2,6.5,38.8,17.6,53.9
			c12.8,17.5,25.3,36.6,25.3,58.4l-0.1,5.6c0,4.6,1.8,8.5,4.9,11.9l0.1-17.5c0.1-23.4-13.5-43.9-26.2-61.3
			c-10.9-14.9-16.7-32.5-16.7-51c0-47.8,38.9-86.6,86.6-86.6c47.8,0,86.6,38.9,86.6,86.6c0,18.9-6,36.9-17.4,52
			c-13.7,18.1-26.4,38.1-26.4,60.7c0,0,0,11.5-0.1,17c2.1-2.3,3.7-4.9,4.7-7.7c0.4-1.1,0.3-8.1,0.3-9.3c0-21.5,12.4-40.5,25.4-57.7
			C284.7,177.8,291.5,158.8,291.5,138.1z"/>
	</g>
</g>
<g id="txt">
</g>
</svg>
